<svg xmlns="http://www.w3.org/2000/svg" viewBox="0 0 200 200"><defs><linearGradient id="m" x1="0" y1="0" x2="1" y2="1"><stop offset="0" stop-color="#0EA5E9"/><stop offset="1" stop-color="#22C55E"/></linearGradient></defs><rect width="200" height="200" rx="24" fill="url(#m)"/><g transform="translate(30,30)"><rect x="0" y="0" width="140" height="140" rx="12" fill="#111827" stroke="#fff" stroke-width="6"/><g fill="#1F2937" stroke="#4B5563" stroke-width="2"> <rect x="14" y="14" width="28" height="28" rx="4"/><rect x="46" y="14" width="28" height="28" rx="4"/><rect x="78" y="14" width="28" height="28" rx="4"/> <rect x="14" y="46" width="28" height="28" rx="4"/><rect x="46" y="46" width="28" height="28" rx="4"/><rect x="78" y="46" width="28" height="28" rx="4"/> <rect x="14" y="78" width="28" height="28" rx="4"/><rect x="46" y="78" width="28" height="28" rx="4"/><rect x="78" y="78" width="28" height="28" rx="4"/></g><circle cx="88" cy="46" r="10" fill="#EF4444"/></g></svg>
